<?xml version="1.0" encoding="utf-8"?>
<!-- Generator: Adobe Illustrator 25.0.1, SVG Export Plug-In . SVG Version: 6.00 Build 0)  -->
<svg version="1.1" id="Layer_1" xmlns="http://www.w3.org/2000/svg" xmlns:xlink="http://www.w3.org/1999/xlink" x="0px" y="0px"
	 viewBox="0 0 252 166.1" style="enable-background:new 0 0 252 166.1;" xml:space="preserve">
<style type="text/css">
	.st0{fill:#1A1A1A;}
</style>
<g>
	<path class="st0" d="M243.8,7.6c-3.9-3.9-9.1-6-14.5-6H22.7c-5.5,0-10.7,2.2-14.5,6c-3.9,3.9-6,9.1-6,14.5V144
		c0,5.5,2.2,10.7,6,14.5c3.9,3.9,9.1,6,14.5,6h206.5c5.5,0,10.7-2.2,14.5-6c3.9-3.9,6-9.1,6-14.5V22.1
		C249.8,16.6,247.7,11.4,243.8,7.6z M16.3,15.7c1.7-1.7,4-2.7,6.4-2.7h206.5c2.4,0,4.7,1,6.4,2.7s2.7,4,2.7,6.4v11.4H13.6V22.1
		C13.6,19.7,14.6,17.4,16.3,15.7z M235.7,150.5c-1.7,1.7-4,2.7-6.4,2.7H22.7c-2.4,0-4.7-1-6.4-2.7s-2.7-4-2.7-6.4V67.4h224.8V144
		C238.4,146.4,237.4,148.7,235.7,150.5z"/>
	<path class="st0" d="M42.9,113.5c0-7.1,2.8-13.8,7.8-18.9c0.8-0.8,1.7-1.6,2.7-2.3c-0.2-0.1-0.4-0.2-0.6-0.2
		c-2.5-0.9-5.1-1.4-7.9-1.4c-6.3,0-12,2.6-16.2,6.7c-4.1,4.1-6.7,9.9-6.7,16.2c0,6.3,2.6,12,6.7,16.2c4.1,4.1,9.9,6.7,16.2,6.7
		c2.8,0,5.4-0.5,7.9-1.4c0.2-0.1,0.4-0.2,0.6-0.2c-0.9-0.7-1.8-1.5-2.7-2.3C45.7,127.4,42.9,120.6,42.9,113.5z"/>
	<path class="st0" d="M69.6,90.7c-6.3,0-12,2.6-16.2,6.7c-4.1,4.1-6.7,9.9-6.7,16.2c0,6.3,2.6,12,6.7,16.2c4.1,4.1,9.9,6.7,16.2,6.7
		s12-2.6,16.2-6.7c4.1-4.1,6.7-9.9,6.7-16.2c0-6.3-2.6-12-6.7-16.2C81.6,93.2,75.9,90.7,69.6,90.7z"/>
	<path class="st0" d="M137.8,107.8h-24.4c-3,0-5.4,2.6-5.4,5.7c0,3.2,2.4,5.7,5.4,5.7h24.4c3,0,5.4-2.6,5.4-5.7
		S140.8,107.8,137.8,107.8z"/>
	<path class="st0" d="M222.8,107.8h-24.4c-3,0-5.4,2.6-5.4,5.7c0,3.2,2.4,5.7,5.4,5.7h24.4c3,0,5.4-2.6,5.4-5.7
		S225.8,107.8,222.8,107.8z"/>
	<path class="st0" d="M180.3,107.8h-24.4c-3,0-5.4,2.6-5.4,5.7c0,3.2,2.4,5.7,5.4,5.7h24.4c3,0,5.4-2.6,5.4-5.7
		S183.3,107.8,180.3,107.8z"/>
</g>
</svg>
