<?xml version="1.0" encoding="utf-8"?>
<!-- Generator: Adobe Illustrator 25.1.0, SVG Export Plug-In . SVG Version: 6.00 Build 0)  -->
<svg version="1.1" id="Layer_1" xmlns="http://www.w3.org/2000/svg" xmlns:xlink="http://www.w3.org/1999/xlink" x="0px" y="0px"
	 viewBox="0 0 252 252" style="enable-background:new 0 0 252 252;" xml:space="preserve">
<g>
	<polygon points="115.6,94.8 126,94.8 126,84.4 136.4,84.4 136.4,74 115.6,74 115.6,63.6 105.2,63.6 105.2,84.4 115.6,84.4 	"/>
	<rect x="126" y="198.8" width="10.4" height="10.4"/>
	<polygon points="126,53.2 126,42.8 105.2,42.8 105.2,53.2 115.6,53.2 115.6,63.6 126,63.6 	"/>
	<path d="M209.2,42.8h-52v52h41.6v10.4h10.4V42.8z M198.8,84.4h-31.2V53.2h31.2V84.4z"/>
	<polygon points="53.2,105.2 42.8,105.2 42.8,115.6 63.6,115.6 63.6,105.2 	"/>
	<polygon points="42.8,126 42.8,146.8 53.2,146.8 53.2,136.4 63.6,136.4 63.6,146.8 74,146.8 74,115.6 63.6,115.6 63.6,126 	"/>
	<rect x="105.2" y="146.8" width="10.4" height="20.8"/>
	<rect x="136.4" y="42.8" width="10.4" height="31.2"/>
	<rect x="136.4" y="84.4" width="10.4" height="10.4"/>
	<rect x="178" y="63.6" width="10.4" height="10.4"/>
	<path d="M42.8,42.8v52h52v-52H42.8z M84.4,84.4H53.2V53.2h31.2V84.4z"/>
	<rect x="63.6" y="63.6" width="10.4" height="10.4"/>
	<polygon points="126,126 157.2,126 157.2,136.4 136.4,136.4 136.4,146.8 157.2,146.8 157.2,157.2 167.6,157.2 167.6,126 178,126 
		178,136.4 188.4,136.4 188.4,157.2 198.8,157.2 198.8,146.8 209.2,146.8 209.2,136.4 198.8,136.4 198.8,126 188.4,126 188.4,115.6 
		198.8,115.6 198.8,105.2 178,105.2 178,115.6 167.6,115.6 167.6,105.2 146.8,105.2 146.8,115.6 136.4,115.6 136.4,105.2 
		105.2,105.2 105.2,94.8 94.8,94.8 94.8,105.2 84.4,105.2 84.4,115.6 94.8,115.6 94.8,136.4 105.2,136.4 105.2,126 115.6,126 
		115.6,146.8 126,146.8 	"/>
	<path d="M42.8,209.2h52v-52h-52V209.2z M53.2,167.6h31.2v31.2H53.2V167.6z"/>
	<rect x="63.6" y="178" width="10.4" height="10.4"/>
	<rect x="167.6" y="157.2" width="10.4" height="10.4"/>
	<polygon points="188.4,209.2 188.4,198.8 198.8,198.8 198.8,188.4 178,188.4 178,178 167.6,178 167.6,188.4 157.2,188.4 157.2,178 
		146.8,178 146.8,167.6 157.2,167.6 157.2,157.2 136.4,157.2 136.4,146.8 126,146.8 126,167.6 115.6,167.6 115.6,178 105.2,178 
		105.2,209.2 115.6,209.2 115.6,198.8 126,198.8 126,188.4 146.8,188.4 146.8,209.2 157.2,209.2 157.2,198.8 167.6,198.8 
		167.6,209.2 	"/>
	<rect x="84.4" y="136.4" width="10.4" height="10.4"/>
	<polygon points="188.4,167.6 188.4,178 198.8,178 198.8,188.4 209.2,188.4 209.2,157.2 198.8,157.2 198.8,167.6 	"/>
	<rect x="198.8" y="198.8" width="10.4" height="10.4"/>
	<rect x="198.8" y="115.6" width="10.4" height="10.4"/>
	<path d="M19.4,24.5c0-2.8,2.3-5,5-5h64.4v-18H19.4H17C8.4,1.4,1.4,8.4,1.4,17v2.5v58h18V24.5z"/>
	<path d="M235,1.4h-2.5h-60.4v18h55.4c2.8,0,5,2.3,5,5v53h18v-58V17C250.6,8.4,243.6,1.4,235,1.4z"/>
	<path d="M19.4,227.5v-66.8h-18v71.8v2.5c0,8.6,6.9,15.5,15.5,15.5h2.5h69.5v-18H24.5C21.7,232.6,19.4,230.3,19.4,227.5z"/>
	<path d="M232.6,227.5c0,2.8-2.3,5-5,5h-55.4v18h60.4h2.5c8.6,0,15.5-6.9,15.5-15.5v-2.5v-71.8h-18V227.5z"/>
</g>
</svg>
