<?xml version="1.0" encoding="utf-8"?>
<!-- Generator: Adobe Illustrator 25.0.1, SVG Export Plug-In . SVG Version: 6.00 Build 0)  -->
<svg version="1.1" id="Layer_1" xmlns="http://www.w3.org/2000/svg" xmlns:xlink="http://www.w3.org/1999/xlink" x="0px" y="0px"
	 viewBox="0 0 252 252" style="enable-background:new 0 0 252 252;" xml:space="preserve">
<g>
	<path d="M205.7,250.3H46.3c-24.6,0-44.6-20-44.6-44.6V46.3c0-24.6,20-44.6,44.6-44.6h159.5c24.6,0,44.6,20,44.6,44.6v159.5
		C250.3,230.4,230.2,250.3,205.7,250.3z M46.3,21.7c-13.6,0-24.6,11-24.6,24.6v159.4c0,13.6,11,24.6,24.6,24.6h159.4
		c13.5,0,24.6-11,24.7-24.6V46.3c0-13.6-11-24.6-24.6-24.6C205.8,21.7,46.3,21.7,46.3,21.7z"/>
</g>
</svg>
