<?xml version="1.0" encoding="utf-8"?>
<!-- Generator: Adobe Illustrator 25.0.1, SVG Export Plug-In . SVG Version: 6.00 Build 0)  -->
<svg version="1.1" id="Layer_1" xmlns="http://www.w3.org/2000/svg" xmlns:xlink="http://www.w3.org/1999/xlink" x="0px" y="0px"
	 viewBox="0 0 252 252" style="enable-background:new 0 0 252 252;" xml:space="preserve">
<g>
	<path d="M241.6,71H213V21.3c0-2.4-1.1-4.7-3.1-6.1c-2-1.4-4.4-1.9-6.7-1.2L8.3,71.2l0,0c-0.2,0.1-0.3,0.1-0.5,0.2
		c-0.1,0-0.1,0-0.2,0.1c-0.2,0.1-0.3,0.2-0.4,0.3c-0.1,0-0.2,0.1-0.3,0.1c-0.1,0.1-0.2,0.1-0.3,0.2c-0.1,0.1-0.3,0.2-0.3,0.3
		l-0.1,0.1c-0.6,0.4-1.1,0.8-1.5,1.4c-0.1,0.1-0.2,0.2-0.3,0.3c-0.1,0.1-0.2,0.2-0.2,0.3c-0.4,0.6-0.7,1.2-0.9,1.9
		c0,0.1,0,0.1-0.1,0.2c0,0.1-0.1,0.3-0.1,0.4C3.1,76.8,3,77,3,77.1c0,0.1,0,0.2,0,0.3c0,0.2-0.1,0.3-0.1,0.5c0,0.1,0,0.1,0,0.2
		c0,0.2,0,0.4,0,0.6l0,0v152.1c0,4.2,3.4,7.6,7.6,7.6h231.2c4.2,0,7.6-3.4,7.6-7.6V78.6C249.3,74.4,245.9,71,241.6,71z M197.7,71
		H63.5l134.2-39.4V71z M234,223.1H18.1V86.2H234V223.1z"/>
	<path d="M133.3,192.1h69.5c4.2,0,7.6-3.4,7.6-7.6s-3.4-7.6-7.6-7.6h-69.5c-4.2,0-7.6,3.4-7.6,7.6S129.1,192.1,133.3,192.1z"/>
	<path d="M133.3,164.2h69.5c4.2,0,7.6-3.4,7.6-7.6s-3.4-7.6-7.6-7.6h-69.5c-4.2,0-7.6,3.4-7.6,7.6S129.1,164.2,133.3,164.2z"/>
</g>
</svg>
