<?xml version="1.0" encoding="utf-8"?>
<!-- Generator: Adobe Illustrator 25.0.1, SVG Export Plug-In . SVG Version: 6.00 Build 0)  -->
<svg version="1.1" id="Layer_1" xmlns="http://www.w3.org/2000/svg" xmlns:xlink="http://www.w3.org/1999/xlink" x="0px" y="0px"
	 viewBox="0 0 432 432" style="enable-background:new 0 0 432 432;" xml:space="preserve">
<g>
	<path d="M200.3,182.3c-5,0-9,4-9,9V242c0,3.4,2,6.6,5.1,8.1l56.2,27.4c1.3,0.6,2.6,0.9,3.9,0.9c3.3,0,6.5-1.9,8.1-5.1
		c2.2-4.5,0.3-9.9-4.1-12l-51.1-25v-45.1C209.3,186.3,205.3,182.3,200.3,182.3z"/>
	<path d="M216,89.3c-27.1,0-53.1,7.8-75.6,22.5l17.2-33.1c2.3-4.4,0.6-9.8-3.8-12.1c-4.4-2.3-9.8-0.6-12.1,3.8l-31.4,60.3
		c-1.4,2.6-1.4,5.7,0,8.3c1.4,2.6,3.9,4.4,6.9,4.7l62.8,7.7c0.4,0,0.7,0.1,1.1,0.1c4.5,0,8.4-3.3,8.9-7.9c0.6-4.9-2.9-9.4-7.8-10
		l-35.5-4.3c20.4-14.4,44.3-22,69.4-22c66.5,0,120.6,54.1,120.6,120.6c0,66.5-54.1,120.6-120.6,120.6S95.4,294.4,95.4,227.9
		c0-5-4-9-9-9s-9,4-9,9c0,76.4,62.2,138.6,138.6,138.6c76.4,0,138.6-62.2,138.6-138.6C354.6,151.5,292.4,89.3,216,89.3z"/>
</g>
</svg>
