<?xml version="1.0" encoding="utf-8"?>
<!-- Generator: Adobe Illustrator 25.0.1, SVG Export Plug-In . SVG Version: 6.00 Build 0)  -->
<svg version="1.1" id="Layer_1" xmlns="http://www.w3.org/2000/svg" xmlns:xlink="http://www.w3.org/1999/xlink" x="0px" y="0px"
	 viewBox="0 0 252 252" style="enable-background:new 0 0 252 252;" xml:space="preserve">
<g>
	<path d="M68,110.1c-9.7,0-17.6,7.9-17.6,17.6V202c0,9.7,7.9,17.6,17.6,17.6s17.6-7.9,17.6-17.6v-74.3C85.6,118,77.7,110.1,68,110.1
		z M72.6,202c0,2.5-2.1,4.6-4.6,4.6s-4.6-2.1-4.6-4.6v-74.3c0-2.5,2.1-4.6,4.6-4.6s4.6,2.1,4.6,4.6V202z"/>
	<path d="M184,110.1c-9.7,0-17.6,7.9-17.6,17.6V202c0,9.7,7.9,17.6,17.6,17.6s17.6-7.9,17.6-17.6v-74.3
		C201.6,118,193.7,110.1,184,110.1z M188.6,202c0,2.5-2.1,4.6-4.6,4.6s-4.6-2.1-4.6-4.6v-74.3c0-2.5,2.1-4.6,4.6-4.6
		s4.6,2.1,4.6,4.6V202z"/>
	<path d="M225.7,206v-81.1h5.7c5.9,0,11.3-4,13-9.7c1.7-5.7-0.5-11.7-5.3-15L132.9,5.3L132.5,5c-8.3-5.3-18.8-4.9-26.8,0.8l-0.4,0.3
		l-93.2,94.5c-4.4,3.5-6.2,9.3-4.5,14.7c1.7,5.6,7,9.5,12.9,9.5h5.7V206H7v44.7h238V206H225.7z M232,237.7H20V219h19.2V111.8H20.5
		c-0.2,0-0.4-0.2-0.5-0.3c-0.1-0.2,0-0.5,0.2-0.7l0.4-0.3l93.1-94.4c3.4-2.3,7.8-2.4,11.4-0.3l106.2,94.9l0.5,0.3
		c0.1,0,0.1,0.2,0.1,0.4c-0.1,0.3-0.4,0.5-0.6,0.5h-18.7v100.7h6.5v6.4H232V237.7z"/>
	<path d="M126,110.1c-9.7,0-17.6,7.9-17.6,17.6V202c0,9.7,7.9,17.6,17.6,17.6c9.7,0,17.6-7.9,17.6-17.6v-74.3
		C143.6,118,135.7,110.1,126,110.1z M130.6,202c0,2.5-2.1,4.6-4.6,4.6c-2.5,0-4.6-2.1-4.6-4.6v-74.3c0-2.5,2.1-4.6,4.6-4.6
		c2.5,0,4.6,2.1,4.6,4.6V202z"/>
</g>
</svg>
