<?xml version="1.0" encoding="utf-8"?>
<!-- Generator: Adobe Illustrator 25.0.1, SVG Export Plug-In . SVG Version: 6.00 Build 0)  -->
<svg version="1.1" id="Layer_1" xmlns="http://www.w3.org/2000/svg" xmlns:xlink="http://www.w3.org/1999/xlink" x="0px" y="0px"
	 viewBox="0 0 252 252" style="enable-background:new 0 0 252 252;" xml:space="preserve">
<g>
	<polygon points="112.3,142.2 76,117.4 52.9,151.3 123.2,199.4 204.5,78.6 170.5,55.7 	"/>
	<path d="M205.8,1.7H46.3c-24.6,0-44.6,20-44.6,44.6v159.4c0,24.6,20,44.6,44.6,44.6h159.4c24.5,0,44.6-19.9,44.7-44.5V46.3
		C250.3,21.7,230.3,1.7,205.8,1.7z M230.3,205.7c-0.1,13.5-11.2,24.6-24.7,24.6H46.3c-13.6,0-24.6-11-24.6-24.6V46.3
		c0-13.6,11-24.6,24.6-24.6h159.5c13.6,0,24.6,11,24.6,24.6v159.4H230.3z"/>
</g>
</svg>
