<?xml version="1.0" encoding="utf-8"?>
<!-- Generator: Adobe Illustrator 25.0.1, SVG Export Plug-In . SVG Version: 6.00 Build 0)  -->
<svg version="1.1" id="Layer_1" xmlns="http://www.w3.org/2000/svg" xmlns:xlink="http://www.w3.org/1999/xlink" x="0px" y="0px"
	 viewBox="0 0 252 252" style="enable-background:new 0 0 252 252;" xml:space="preserve">
<g>
	<path d="M126.1,129c34.1,0,61.8-27.7,61.8-61.8S160.2,5.3,126.1,5.3S64.3,33.1,64.3,67.1S92,129,126.1,129z M126.1,20.2
		c25.9,0,47,21.1,47,47s-21.1,47-47,47s-47-21.1-47-47S100.2,20.2,126.1,20.2z"/>
	<path d="M149,138.1h-46c-55.8,0-101.2,45.4-101.2,101.2c0,4.1,3.3,7.4,7.4,7.4h233.4c4.1,0,7.4-3.3,7.4-7.4
		C250.2,183.5,204.9,138.1,149,138.1z M17.1,231.8c3.8-44.1,40.9-78.9,86-78.9h46c45.1,0,82.2,34.7,86,78.9H17.1z"/>
</g>
</svg>
