<?xml version="1.0" encoding="utf-8"?>
<!-- Generator: Adobe Illustrator 25.0.1, SVG Export Plug-In . SVG Version: 6.00 Build 0)  -->
<svg version="1.1" id="Layer_1" xmlns="http://www.w3.org/2000/svg" xmlns:xlink="http://www.w3.org/1999/xlink" x="0px" y="0px"
	 viewBox="0 0 432 432" style="enable-background:new 0 0 432 432;" xml:space="preserve">
<g>
	<path d="M216,219.6c41.4,0,75.1-33.7,75.1-75.1S257.4,69.4,216,69.4c-41.4,0-75.1,33.7-75.1,75.1S174.6,219.6,216,219.6z M216,87.4
		c31.5,0,57.1,25.6,57.1,57.1s-25.6,57.1-57.1,57.1s-57.1-25.6-57.1-57.1S184.5,87.4,216,87.4z"/>
	<path d="M243.9,230.7h-55.9c-67.8,0-122.9,55.1-122.9,122.9c0,5,4,9,9,9h283.6c5,0,9-4,9-9C366.8,285.8,311.7,230.7,243.9,230.7z
		 M83.6,344.6c4.6-53.6,49.7-95.9,104.5-95.9h55.9c54.8,0,99.9,42.2,104.5,95.9H83.6z"/>
</g>
</svg>
