<?xml version="1.0" encoding="utf-8"?>
<!-- Generator: Adobe Illustrator 25.0.1, SVG Export Plug-In . SVG Version: 6.00 Build 0)  -->
<svg version="1.1" id="Layer_1" xmlns="http://www.w3.org/2000/svg" xmlns:xlink="http://www.w3.org/1999/xlink" x="0px" y="0px"
	 viewBox="0 0 252 252" style="enable-background:new 0 0 252 252;" xml:space="preserve">
<g>
	<path d="M112.9,98c-4.2,0-7.5,3.3-7.5,7.5v42.2c0,2.8,1.7,5.5,4.2,6.7l46.8,22.8c1.1,0.5,2.2,0.7,3.2,0.7c2.7,0,5.4-1.6,6.7-4.2
		c1.8-3.7,0.2-8.2-3.4-10l-42.5-20.8v-37.5C120.4,101.3,117.1,98,112.9,98z"/>
	<path d="M126,20.5c-22.6,0-44.2,6.5-62.9,18.7l14.3-27.6c1.9-3.7,0.5-8.2-3.2-10.1c-3.7-1.9-8.2-0.5-10.1,3.2L38,55
		c-1.2,2.2-1.2,4.7,0,6.9c1.2,2.2,3.2,3.7,5.7,3.9L96,72.2c0.3,0,0.6,0.1,0.9,0.1c3.7,0,7-2.7,7.4-6.6c0.5-4.1-2.4-7.8-6.5-8.3
		l-29.6-3.6c17-12,36.9-18.3,57.8-18.3c55.4,0,100.4,45,100.4,100.4s-45,100.4-100.4,100.4s-100.5-45-100.5-100.4
		c0-4.2-3.3-7.5-7.5-7.5s-7.5,3.3-7.5,7.5c0,63.6,51.8,115.4,115.4,115.4s115.4-51.8,115.4-115.4S189.6,20.5,126,20.5z"/>
</g>
</svg>
