<?xml version="1.0" encoding="utf-8"?>
<!-- Generator: Adobe Illustrator 25.1.0, SVG Export Plug-In . SVG Version: 6.00 Build 0)  -->
<svg version="1.1" id="Layer_1" xmlns="http://www.w3.org/2000/svg" xmlns:xlink="http://www.w3.org/1999/xlink" x="0px" y="0px"
	 viewBox="0 0 252 252" style="enable-background:new 0 0 252 252;" xml:space="preserve">
<g>
	<path d="M141.6,250.7h-31.3c-6.9,0-12.8-4.9-14-11.8l-4.4-24.7c-1.4-0.6-2.9-1.1-4.3-1.8l-20.5,14.3c-5.7,4-13.4,3.3-18.3-1.6
		l-22.2-22.2c-4.8-4.9-5.4-12.6-1.5-18.2l14.5-20.8c-0.6-1.3-1.1-2.6-1.6-4l-25-4.5c-6.8-1.2-11.7-7.1-11.7-14v-31.3
		c0-6.9,4.9-12.8,11.8-14l25.3-4.5c0.5-1.2,1-2.3,1.5-3.5l-14.8-21c-4-5.7-3.3-13.4,1.6-18.3l22.1-22.2c4.9-4.8,12.6-5.4,18.2-1.5
		L88.3,40c1.1-0.5,2.2-0.9,3.3-1.3L96.2,13c1.2-6.8,7.1-11.8,14-11.8h31.3c6.9,0,12.8,4.9,14,11.8l4.6,25.6c1.1,0.4,2.2,0.9,3.3,1.3
		l21.4-14.8c5.7-4,13.4-3.3,18.3,1.6l22.2,22.2c4.8,4.9,5.4,12.6,1.5,18.2l-14.7,21.1c0.5,1.1,1,2.3,1.5,3.5l25.5,4.6
		c6.7,1.4,11.5,7.1,11.7,13.9v0.2v31.2c0,6.9-4.9,12.8-11.8,14l-25,4.5c-0.5,1.3-1,2.6-1.6,3.9l14.5,20.8c4,5.7,3.3,13.4-1.6,18.3
		l-22.2,22.2c-4.9,4.8-12.6,5.4-18.2,1.5l-20.6-14.3c-1.5,0.7-2.9,1.2-4.3,1.8l-4.4,24.7C154.4,245.8,148.5,250.7,141.6,250.7z
		 M86.5,197.5l3.5,1.7c3.2,1.6,6.5,3,9.8,4.1l3.7,1.2l5.8,32.1c0.1,0.6,0.6,1.1,1.2,1.1h31.3c0.6,0,1.1-0.5,1.2-1.1l5.8-32.1
		l3.7-1.2c3.1-1,6.2-2.3,9.9-4.1l3.4-1.7l26.8,18.7c0.5,0.4,1.2,0.3,1.7-0.2l22.1-22.1c0.4-0.4,0.5-1.2,0.1-1.7l-18.7-26.9l1.6-3.4
		c1.6-3.4,2.9-6.5,4-9.7l1.2-3.6l32.4-5.9c0.6-0.1,1.1-0.6,1.1-1.2v-31.1c0-0.7-0.6-1.3-1.3-1.5l-32.6-5.8l-1.3-3.5
		c-1.3-3.7-2.6-6.6-3.8-9.2l-1.7-3.5l19.1-27.4c0.4-0.5,0.3-1.2-0.2-1.7l-22.1-22.1c-0.4-0.4-1.2-0.5-1.7-0.1L165,54.7l-3.4-1.7
		c-2.7-1.3-5.7-2.5-9-3.7l-3.6-1.2l-6-33c-0.1-0.6-0.6-1.1-1.2-1.1h-31.3c-0.6,0-1.1,0.5-1.2,1.1l-6,33.1l-3.6,1.2
		c-3.2,1.1-6.3,2.3-9,3.7l-3.4,1.7l-27.7-19c-0.5-0.4-1.2-0.3-1.7,0.2l-22,22c-0.4,0.4-0.5,1.2-0.1,1.7l19.1,27.4l-1.7,3.5
		c-1.6,3.1-2.8,6.1-3.8,9l-1.2,3.7l-32.8,5.9c-0.6,0.1-1,0.6-1,1.2v31.3c0,0.6,0.5,1.1,1.1,1.2l32.4,5.9l1.2,3.6
		c1.2,3.4,2.5,6.7,3.9,9.6l1.7,3.4l-18.8,27c-0.4,0.5-0.3,1.2,0.2,1.7l21.9,22c0.4,0.4,1.2,0.5,1.7,0.1L86.5,197.5z M129.6,182.9
		c-34.1,2.2-62.3-26.1-60.2-60.2c1.8-28.2,24.6-51,52.8-52.8c34.1-2.2,62.3,26.1,60.2,60.2C180.6,158.3,157.8,181.1,129.6,182.9z
		 M129.9,83c-27.1-2.4-49.8,20.2-47.4,47.4c1.9,20.8,18.6,37.6,39.4,39.4c27.1,2.4,49.8-20.2,47.4-47.4
		C167.5,101.6,150.7,84.9,129.9,83z"/>
</g>
</svg>
