<?xml version="1.0" encoding="utf-8"?>
<!-- Generator: Adobe Illustrator 25.0.1, SVG Export Plug-In . SVG Version: 6.00 Build 0)  -->
<svg version="1.1" id="Layer_1" xmlns="http://www.w3.org/2000/svg" xmlns:xlink="http://www.w3.org/1999/xlink" x="0px" y="0px"
	 viewBox="0 0 432 432" style="enable-background:new 0 0 432 432;" xml:space="preserve">
<g>
	<path d="M352.1,151.2h-33.7V92.7c0-2.8-1.3-5.5-3.6-7.2c-2.3-1.7-5.2-2.2-7.9-1.4L77.4,151.5c0,0,0,0,0,0c-0.2,0.1-0.4,0.1-0.6,0.2
		c-0.1,0-0.1,0-0.2,0.1c-0.2,0.1-0.4,0.2-0.5,0.3c-0.1,0-0.2,0.1-0.3,0.1c-0.1,0.1-0.2,0.1-0.4,0.2c-0.1,0.1-0.3,0.2-0.4,0.3
		c0,0-0.1,0.1-0.1,0.1c-0.7,0.5-1.3,1-1.8,1.6c-0.1,0.1-0.2,0.2-0.3,0.4c-0.1,0.1-0.2,0.2-0.2,0.3c-0.5,0.7-0.8,1.4-1.1,2.2
		c0,0.1,0,0.1-0.1,0.2c0,0.1-0.1,0.3-0.1,0.5c0,0.1-0.1,0.3-0.1,0.4c0,0.1,0,0.2,0,0.3c0,0.2-0.1,0.4-0.1,0.6c0,0.1,0,0.1,0,0.2
		c0,0.2,0,0.5,0,0.7c0,0,0,0,0,0v179.1c0,5,4,9,9,9h272.2c5,0,9-4,9-9V160.2C361.1,155.2,357.1,151.2,352.1,151.2z M300.4,151.2
		h-158l158-46.4V151.2z M343.1,330.3H88.9V169.2h254.2V330.3z"/>
	<path d="M224.6,293.8h81.8c5,0,9-4,9-9s-4-9-9-9h-81.8c-5,0-9,4-9,9S219.6,293.8,224.6,293.8z"/>
	<path d="M224.6,261h81.8c5,0,9-4,9-9s-4-9-9-9h-81.8c-5,0-9,4-9,9S219.6,261,224.6,261z"/>
</g>
</svg>
